<svg width="164" height="37" viewBox="0 0 164 37" fill="none" xmlns="http://www.w3.org/2000/svg">
<path fill-rule="evenodd" clip-rule="evenodd" d="M38.2593 3.0624C37.3192 2.59025 36.1559 2.4511 34.856 2.68758C34.0544 2.83397 33.1999 3.12353 32.3137 3.56512C31.4628 3.99062 30.6483 4.5239 29.8765 5.14245L33.0074 6.71575C33.7792 6.09721 34.5937 5.56392 35.4437 5.13923C36.3298 4.69684 37.1835 4.40727 37.986 4.26088C39.2859 4.0244 40.4492 4.16356 41.3893 4.63571L38.2593 3.0624Z" fill="#F0A72E"/>
<mask id="mask0" mask-type="alpha" maskUnits="userSpaceOnUse" x="0" y="0" width="31" height="35">
<path fill-rule="evenodd" clip-rule="evenodd" d="M0 0.609177H30.3026V34.2347H0V0.609177Z" fill="white"/>
</mask>
<g mask="url(#mask0)">
<path fill-rule="evenodd" clip-rule="evenodd" d="M27.1725 1.17283C26.0864 0.626675 24.7409 0.466609 23.2382 0.740088C22.3102 0.909001 21.3217 1.24361 20.2961 1.75598C18.5897 2.60859 16.9875 3.84728 15.5983 5.312C13.0421 8.00737 11.2065 11.4677 10.762 14.6891C9.99484 14.8387 9.17282 15.1226 8.32942 15.5441C6.85835 16.2785 5.47748 17.345 4.28072 18.6063C1.71611 21.3065 -0.0097497 24.8971 -0.000450889 28.0228C0.00791804 30.3023 0.936869 31.907 2.43677 32.6606L5.56675 34.2347C4.06592 33.4803 3.13697 31.8756 3.12953 29.5961C3.1193 26.4704 4.84609 22.8798 7.40977 20.1796C8.60746 18.9183 9.9874 17.8518 11.4594 17.1174C12.3019 16.6959 13.1248 16.412 13.891 16.2624C14.3355 13.041 16.172 9.58067 18.7283 6.8853C20.1175 5.42059 21.7188 4.18189 23.426 3.32928C24.4508 2.81691 25.4392 2.4823 26.3673 2.31339C27.8709 2.03911 29.2155 2.19998 30.3025 2.74613L27.1725 1.17283Z" fill="#F0A72E"/>
</g>
<path fill-rule="evenodd" clip-rule="evenodd" d="M23.4259 3.32944C28.2669 0.911571 32.2896 2.44466 33.0074 6.71575C33.7792 6.0972 34.5938 5.56392 35.4437 5.13922C40.0578 2.83477 43.8127 4.68557 43.8275 9.27116C43.8424 13.8575 40.1117 19.4462 35.4977 21.7506L11.5132 33.729C6.89267 36.0366 3.14432 34.1826 3.12944 29.5962C3.11456 25.0098 6.8378 19.4252 11.4584 17.1176C12.3027 16.6961 13.1247 16.4122 13.891 16.2625C14.5772 11.2901 18.5776 5.75053 23.4259 3.32944" fill="#FFCA00"/>
<path fill-rule="evenodd" clip-rule="evenodd" d="M62.7051 5.31442C61.765 4.84227 60.6017 4.70311 59.3018 4.93959C58.4993 5.08598 57.6457 5.37555 56.7586 5.81713C55.9086 6.24183 55.0941 6.77592 54.3223 7.39446L57.4522 8.96777C58.224 8.34922 59.0386 7.81513 59.8895 7.39124C60.7747 6.94805 61.6293 6.65929 62.4308 6.5129C63.7317 6.27642 64.8941 6.41557 65.8342 6.88772L62.7051 5.31442Z" fill="#D43E3E"/>
<path fill-rule="evenodd" clip-rule="evenodd" d="M51.6137 3.41977C50.5276 2.87362 49.182 2.71275 47.6794 2.98623C46.7513 3.15514 45.7647 3.48975 44.7409 4.00132C43.0402 4.85071 41.4426 6.08619 40.0562 7.54849C37.4981 10.2463 35.6588 13.713 35.2134 16.9376C34.4397 17.0905 33.6242 17.3712 32.7743 17.7959C31.3051 18.5294 29.9261 19.596 28.7293 20.8564C26.1647 23.5566 24.4351 27.1488 24.4454 30.2745C24.4528 32.5533 25.3836 34.1563 26.8826 34.9108L30.0126 36.4833C28.5127 35.7296 27.5818 34.1266 27.5744 31.8478C27.5642 28.7221 29.2947 25.1299 31.8584 22.4297C33.0561 21.1685 34.4351 20.1028 35.9034 19.3692C36.7551 18.9445 37.5697 18.6638 38.3434 18.5109C38.7888 15.2855 40.6281 11.8196 43.1862 9.1218C44.5726 7.65949 46.1702 6.42401 47.8709 5.57382C48.8938 5.06306 49.8813 4.72845 50.8084 4.55953C52.312 4.28606 53.6566 4.44693 54.7437 4.99308L51.6137 3.41977Z" fill="#D43E3E"/>
<path fill-rule="evenodd" clip-rule="evenodd" d="M47.8708 5.57398C52.7118 3.15691 56.7354 4.69643 57.4523 8.96752C58.2241 8.34898 59.0387 7.81569 59.8895 7.391C64.5036 5.08654 68.2575 6.93735 68.2724 11.5229C68.2873 16.1093 64.5575 21.6979 59.9435 24.0024L35.9581 35.9807C31.345 38.2852 27.5901 36.4344 27.5752 31.848C27.5604 27.2616 31.2901 21.673 35.9042 19.3685C36.755 18.9447 37.5705 18.6639 38.3433 18.5103C39.0295 13.5386 43.0299 7.99185 47.8708 5.57398" fill="#FA7564"/>
<path d="M81.9398 26V12.92H84.5598L86.8798 19.32C87.0265 19.7333 87.1665 20.16 87.2998 20.6C87.4331 21.0267 87.5731 21.4533 87.7198 21.88H87.7998C87.9465 21.4533 88.0798 21.0267 88.1998 20.6C88.3331 20.16 88.4731 19.7333 88.6198 19.32L90.8798 12.92H93.5198V26H91.3798V20.02C91.3798 19.7133 91.3865 19.38 91.3998 19.02C91.4265 18.66 91.4531 18.3 91.4798 17.94C91.5065 17.5667 91.5398 17.2067 91.5798 16.86C91.6198 16.5 91.6531 16.1667 91.6798 15.86H91.5998L90.5398 18.9L88.3998 24.78H87.0198L84.8598 18.9L83.8198 15.86H83.7398C83.7665 16.1667 83.7931 16.5 83.8198 16.86C83.8598 17.2067 83.8931 17.5667 83.9198 17.94C83.9598 18.3 83.9865 18.66 83.9998 19.02C84.0265 19.38 84.0398 19.7133 84.0398 20.02V26H81.9398ZM98.6723 26.24C97.8057 26.24 97.1057 25.98 96.5723 25.46C96.039 24.9267 95.7723 24.2267 95.7723 23.36C95.7723 22.84 95.879 22.38 96.0923 21.98C96.319 21.5667 96.6657 21.2133 97.1323 20.92C97.6123 20.6267 98.2123 20.38 98.9323 20.18C99.6657 19.98 100.539 19.8267 101.552 19.72C101.539 19.4667 101.499 19.2267 101.432 19C101.379 18.76 101.279 18.5533 101.132 18.38C100.999 18.1933 100.819 18.0533 100.592 17.96C100.366 17.8533 100.086 17.8 99.7523 17.8C99.2723 17.8 98.799 17.8933 98.3323 18.08C97.879 18.2667 97.4323 18.4933 96.9923 18.76L96.1523 17.22C96.699 16.8733 97.3123 16.5733 97.9923 16.32C98.6723 16.0667 99.4057 15.94 100.192 15.94C101.419 15.94 102.332 16.3067 102.932 17.04C103.546 17.76 103.852 18.8067 103.852 20.18V26H101.952L101.792 24.92H101.712C101.272 25.2933 100.799 25.6067 100.292 25.86C99.799 26.1133 99.259 26.24 98.6723 26.24ZM99.4123 24.44C99.8123 24.44 100.172 24.3467 100.492 24.16C100.826 23.9733 101.179 23.7067 101.552 23.36V21.16C100.886 21.24 100.326 21.3467 99.8723 21.48C99.419 21.6133 99.0523 21.7667 98.7723 21.94C98.4923 22.1 98.2923 22.2867 98.1723 22.5C98.0523 22.7133 97.9923 22.94 97.9923 23.18C97.9923 23.62 98.1257 23.94 98.3923 24.14C98.659 24.34 98.999 24.44 99.4123 24.44ZM106.255 26V16.18H108.155L108.315 17.92H108.395C108.742 17.28 109.162 16.7933 109.655 16.46C110.148 16.1133 110.655 15.94 111.175 15.94C111.642 15.94 112.015 16.0067 112.295 16.14L111.895 18.14C111.722 18.0867 111.562 18.0467 111.415 18.02C111.268 17.9933 111.088 17.98 110.875 17.98C110.488 17.98 110.082 18.1333 109.655 18.44C109.228 18.7333 108.862 19.2533 108.555 20V26H106.255ZM116.826 26.24C116.253 26.24 115.766 26.1533 115.366 25.98C114.98 25.8067 114.66 25.5667 114.406 25.26C114.166 24.94 113.986 24.5667 113.866 24.14C113.76 23.7 113.706 23.2133 113.706 22.68V18H112.306V16.28L113.826 16.18L114.106 13.5H116.026V16.18H118.526V18H116.026V22.68C116.026 23.8267 116.486 24.4 117.406 24.4C117.58 24.4 117.753 24.38 117.926 24.34C118.113 24.3 118.28 24.2467 118.426 24.18L118.826 25.88C118.56 25.9733 118.253 26.0533 117.906 26.12C117.573 26.2 117.213 26.24 116.826 26.24ZM122.193 26.24C121.327 26.24 120.627 25.98 120.093 25.46C119.56 24.9267 119.293 24.2267 119.293 23.36C119.293 22.84 119.4 22.38 119.613 21.98C119.84 21.5667 120.187 21.2133 120.653 20.92C121.133 20.6267 121.733 20.38 122.453 20.18C123.187 19.98 124.06 19.8267 125.073 19.72C125.06 19.4667 125.02 19.2267 124.953 19C124.9 18.76 124.8 18.5533 124.653 18.38C124.52 18.1933 124.34 18.0533 124.113 17.96C123.887 17.8533 123.607 17.8 123.273 17.8C122.793 17.8 122.32 17.8933 121.853 18.08C121.4 18.2667 120.953 18.4933 120.513 18.76L119.673 17.22C120.22 16.8733 120.833 16.5733 121.513 16.32C122.193 16.0667 122.927 15.94 123.713 15.94C124.94 15.94 125.853 16.3067 126.453 17.04C127.067 17.76 127.373 18.8067 127.373 20.18V26H125.473L125.313 24.92H125.233C124.793 25.2933 124.32 25.6067 123.813 25.86C123.32 26.1133 122.78 26.24 122.193 26.24ZM122.933 24.44C123.333 24.44 123.693 24.3467 124.013 24.16C124.347 23.9733 124.7 23.7067 125.073 23.36V21.16C124.407 21.24 123.847 21.3467 123.393 21.48C122.94 21.6133 122.573 21.7667 122.293 21.94C122.013 22.1 121.813 22.2867 121.693 22.5C121.573 22.7133 121.513 22.94 121.513 23.18C121.513 23.62 121.647 23.94 121.913 24.14C122.18 24.34 122.52 24.44 122.933 24.44ZM134.876 26.24C134.116 26.24 133.429 26.1333 132.816 25.92C132.216 25.6933 131.696 25.34 131.256 24.86C130.829 24.38 130.496 23.7667 130.256 23.02C130.029 22.26 129.916 21.34 129.916 20.26V12.92H132.236V20.44C132.236 21.1467 132.296 21.7467 132.416 22.24C132.549 22.72 132.729 23.1067 132.956 23.4C133.196 23.6933 133.476 23.9067 133.796 24.04C134.116 24.16 134.476 24.22 134.876 24.22C135.276 24.22 135.643 24.16 135.976 24.04C136.309 23.9067 136.596 23.6933 136.836 23.4C137.076 23.1067 137.263 22.72 137.396 22.24C137.529 21.7467 137.596 21.1467 137.596 20.44V12.92H139.816V20.26C139.816 21.34 139.703 22.26 139.476 23.02C139.249 23.7667 138.916 24.38 138.476 24.86C138.049 25.34 137.529 25.6933 136.916 25.92C136.316 26.1333 135.636 26.24 134.876 26.24ZM142.732 26V12.92H146.852C147.572 12.92 148.238 12.9867 148.852 13.12C149.478 13.2533 150.018 13.48 150.472 13.8C150.925 14.12 151.278 14.54 151.532 15.06C151.785 15.5667 151.912 16.2 151.912 16.96C151.912 17.68 151.785 18.3067 151.532 18.84C151.278 19.3733 150.925 19.82 150.472 20.18C150.032 20.5267 149.505 20.7867 148.892 20.96C148.292 21.12 147.638 21.2 146.932 21.2H145.052V26H142.732ZM145.052 19.34H146.752C148.672 19.34 149.632 18.5467 149.632 16.96C149.632 16.1333 149.378 15.5667 148.872 15.26C148.378 14.94 147.645 14.78 146.672 14.78H145.052V19.34Z" fill="white"/>
</svg>
